<?xml version="1.0" encoding="UTF-8" standalone="no"?>
<!-- Created with Inkscape (http://www.inkscape.org/) -->

<svg
   xmlns:dc="http://purl.org/dc/elements/1.1/"
   xmlns:cc="http://creativecommons.org/ns#"
   xmlns:rdf="http://www.w3.org/1999/02/22-rdf-syntax-ns#"
   xmlns:svg="http://www.w3.org/2000/svg"
   xmlns="http://www.w3.org/2000/svg"
   xmlns:sodipodi="http://sodipodi.sourceforge.net/DTD/sodipodi-0.dtd"
   xmlns:inkscape="http://www.inkscape.org/namespaces/inkscape"
   width="47"
   height="47"
   id="svg4542"
   version="1.1"
   inkscape:version="0.48.0 r9654"
   sodipodi:docname="New document 8">
  <defs
     id="defs3">
    <filter
       color-interpolation-filters="sRGB"
       inkscape:collect="always"
       id="filter3787-4"
       x="-0.12170626"
       width="1.2434125"
       y="-0.11834094"
       height="1.2366819">
      <feGaussianBlur
         inkscape:collect="always"
         stdDeviation="5.0710942"
         id="feGaussianBlur3789-8" />
    </filter>
  </defs>
  <sodipodi:namedview
     inkscape:document-units="mm"
     id="base"
     pagecolor="#ffffff"
     bordercolor="#666666"
     borderopacity="1.0"
     inkscape:pageopacity="0.0"
     inkscape:pageshadow="2"
     inkscape:zoom="2.8"
     inkscape:cx="154.99593"
     inkscape:cy="70.579165"
     inkscape:current-layer="text3836-6"
     showgrid="false"
     inkscape:window-width="1366"
     inkscape:window-height="705"
     inkscape:window-x="-8"
     inkscape:window-y="-8"
     inkscape:window-maximized="1" />
  <metadata
     id="metadata4">
    <rdf:RDF>
      <cc:Work
         rdf:about="">
        <dc:format>image/svg+xml</dc:format>
        <dc:type
           rdf:resource="http://purl.org/dc/dcmitype/StillImage" />
        <dc:title></dc:title>
      </cc:Work>
    </rdf:RDF>
  </metadata>
  <g
     inkscape:label="Layer 1"
     inkscape:groupmode="layer"
     id="layer1"
     transform="translate(0,-1005.3622)">
    <path
       inkscape:connector-curvature="0"
       style="fill:#333333;fill-opacity:1;fill-rule:nonzero;stroke:none;filter:url(#filter3787-4)"
       d="m 62.170626,937.3478 c -27.6143,0 -50,22.38576 -50,50 0,9.04078 2.4281,17.5259 6.625,24.8437 l -6.625,28.0001 31.1562,-6.5313 c 5.8212,2.3733 12.1694,3.6875 18.8438,3.6875 27.6142,0 50.000004,-22.3858 50.000004,-50 0,-27.61424 -22.385804,-50 -50.000004,-50 z"
       id="path3755-7"
       sodipodi:nodetypes="sscccsss"
       transform="matrix(0.377992,0,0,0.36954028,3.0124325e-7,663.47199)" />
    <path
       inkscape:connector-curvature="0"
       style="fill:#ffffff;fill-opacity:1;fill-rule:nonzero;stroke:none"
       d="m 23.505027,1008.2771 c -10.437946,0 -18.8995999,8.2724 -18.8995999,18.477 0,3.3409 0.91784,6.4765 2.5041971,9.1807 l -2.5041971,10.3472 11.7768329,-2.4136 c 0.137513,0.055 0.27582,0.1081 0.414884,0.1598 0.139063,0.052 0.278882,0.102 0.419457,0.1505 0.140538,0.049 0.281831,0.096 0.42388,0.1411 0.142012,0.045 0.28478,0.089 0.428228,0.1315 0.143448,0.042 0.287576,0.083 0.432423,0.1218 0.144846,0.039 0.290373,0.076 0.43658,0.1119 0.14617,0.035 0.29302,0.07 0.44055,0.1019 0.147492,0.032 0.295665,0.063 0.444443,0.092 0.148778,0.029 0.298198,0.056 0.448223,0.082 0.150025,0.025 0.300655,0.049 0.45189,0.071 0.151234,0.022 0.303073,0.042 0.45548,0.061 0.152368,0.018 0.305342,0.035 0.458882,0.05 0.15354,0.015 0.30761,0.028 0.462246,0.039 0.154599,0.011 0.309765,0.02 0.46546,0.028 0.155657,0.01 0.311881,0.013 0.468559,0.017 0.156715,0 0.313884,0.01 0.471582,0.01 10.437985,0 18.899603,-8.2724 18.899603,-18.477 0,-10.2046 -8.461618,-18.477 -18.899603,-18.477 z"
       id="path3755-5-4"
       sodipodi:nodetypes="sscccssssssssssssssssss" />
    <g
       style="font-size:80px;font-style:normal;font-weight:normal;line-height:125%;letter-spacing:0px;word-spacing:0px;fill:#3598dc;fill-opacity:1;stroke:none;font-family:Sans"
       id="text3836-6"
       transform="matrix(0.377992,0,0,0.36954028,3.0124325e-7,663.47199)">
      <path
         d="m 37.423975,969.96942 -0.136719,16.54297 -6.933594,0 -0.410156,-16.54297 z m -3.769531,17.91016 c 1.276032,10e-6 2.373036,0.46225 3.291015,1.38672 0.917956,0.92448 1.37694,2.02474 1.376953,3.30078 -1.3e-5,1.27604 -0.455742,2.36003 -1.367187,3.25195 -0.911469,0.89193 -2.011729,1.33789 -3.300781,1.33789 -1.341153,0 -2.444668,-0.43294 -3.310547,-1.29883 -0.86589,-0.86588 -1.298832,-1.9694 -1.298828,-3.31054 -4e-6,-1.30208 0.449214,-2.4056 1.347656,-3.31055 0.898431,-0.90494 1.98567,-1.35741 3.261719,-1.35742 z"
         style="font-size:40px;font-variant:normal;font-stretch:normal;font-family:Bauhaus 93;-inkscape-font-specification:Bauhaus 93"
         id="path4566"
         inkscape:connector-curvature="0" />
      <path
         d="m 65.607569,992.86005 0.761718,3.04687 c -2.447938,0.83333 -5.084654,1.25 -7.910156,1.25 -4.869803,0 -8.613289,-1.45833 -11.230469,-4.375 -2.265627,-2.52603 -3.398439,-5.60546 -3.398437,-9.23828 -2e-6,-3.99738 1.341143,-7.34373 4.023437,-10.03906 2.682284,-2.69529 6.009104,-4.04294 9.980469,-4.04297 3.723939,3e-5 6.803363,1.11005 9.238281,3.33008 2.434869,2.22007 3.652316,5.0228 3.652344,8.4082 -2.8e-5,2.56512 -0.774767,4.69728 -2.324219,6.39648 -1.549503,1.69923 -3.496116,2.54884 -5.839843,2.54883 -1.250019,10e-6 -2.249367,-0.23111 -2.998047,-0.69336 -0.748715,-0.46223 -1.123063,-1.08397 -1.123047,-1.86523 -1.6e-5,-0.36458 0.0716,-0.83332 0.214844,-1.40625 l 0.742187,-2.83203 c 0.05207,-0.22134 0.07811,-0.47525 0.07813,-0.76172 -1.7e-5,-1.05467 -0.514339,-1.58202 -1.542969,-1.58203 -0.638035,10e-6 -1.194675,0.24415 -1.669921,0.73242 -0.475274,0.4883 -0.712904,1.05145 -0.712891,1.68945 -1.3e-5,0.83335 0.397122,1.25001 1.191406,1.25 0.37759,10e-6 0.742173,-0.0651 1.09375,-0.19531 l -1.757812,4.84375 c -0.41668,0.0651 -0.761732,0.0977 -1.035157,0.0977 -1.419282,0 -2.548838,-0.41992 -3.388671,-1.25977 -0.839853,-0.83983 -1.259774,-1.9759 -1.259766,-3.4082 -8e-6,-2.33072 0.8496,-4.35871 2.548828,-6.08399 1.699207,-1.72524 3.701158,-2.58787 6.005859,-2.58789 1.653628,2e-5 2.985007,0.42646 3.994141,1.2793 1.009093,0.85288 1.51365,1.96942 1.513672,3.34961 -2.2e-5,0.57293 -0.08466,1.20444 -0.253906,1.89453 l -0.585938,2.36328 -0.117187,0.41016 c -0.104188,0.37761 -0.156271,0.70313 -0.15625,0.97656 -2.1e-5,0.62501 0.286437,0.93751 0.859375,0.9375 0.885394,10e-6 1.692684,-0.6315 2.421875,-1.89453 0.729141,-1.26301 1.093724,-2.66275 1.09375,-4.19922 -2.6e-5,-2.59113 -0.901717,-4.69399 -2.705078,-6.30859 -1.803407,-1.61456 -4.15692,-2.42185 -7.060547,-2.42188 -3.125013,3e-5 -5.70639,1.05146 -7.744141,3.1543 -2.037766,2.10288 -3.056645,4.76238 -3.056641,7.97851 -4e-6,2.77345 0.794266,5.1172 2.382813,7.03125 1.940095,2.34376 4.934884,3.51563 8.984375,3.51563 2.304669,0 4.667948,-0.42969 7.089844,-1.28906 z"
         style="font-size:40px;font-variant:normal;font-stretch:normal;font-family:Bauhaus 93;-inkscape-font-specification:Bauhaus 93"
         id="path4568"
         inkscape:connector-curvature="0" />
      <path
         d="m 91.017725,989.5202 -0.996094,7.10938 -4.394531,0 0.996094,-7.10938 -3.945313,0 -0.996094,7.10938 -4.414062,0 1.015625,-7.10938 -3.691406,0 0.605468,-4.29687 3.691407,0 0.546875,-3.96485 -3.671875,0 0.585937,-4.29687 3.691406,0 0.976563,-6.99219 4.667969,0 -0.976563,6.99219 3.417969,0 0.976562,-6.99219 4.667969,0 -0.976562,6.99219 4.121093,0 -0.605468,4.29687 -4.121094,0 -0.566406,3.96485 4.121093,0 -0.605468,4.29687 z m -3.222656,-8.26172 -3.964844,0 -0.546875,3.96485 3.945312,0 z"
         style="font-size:40px;font-variant:normal;font-stretch:normal;font-family:Bauhaus 93;-inkscape-font-specification:Bauhaus 93"
         id="path4570"
         inkscape:connector-curvature="0" />
    </g>
  </g>
</svg>
